# xmcd
#
# Track frame offsets:
#	150
#	16052
#	32454
#	49648
#	63201
#	77291
#	92641
#	109046
#	125202
#	140706
#	157119
#	173592
#	190149
#	201482
#	217986
#
# Disc length: 3147 seconds
#
# Revision: 1
# Processed by: cddbd v1.5.2PL0 Copyright (c) Steve Scherf et al.
# Submitted via: audiograbber 1.83.01
#
DISCID=c40c490f
DTITLE=Keynote Karaoke  - keynote karaoke artist series Toby Keith
DYEAR=1900
DGENRE=karaoke
TTITLE0=Toby Keith - how do you like me now
TTITLE1=Toby Keith - country comes to town
TTITLE2=Toby Keith - you shouldn't kiss me like this
TTITLE3=Toby Keith - I'm just talkin' about tonight
TTITLE4=Toby Keith - i wanna talk about me
TTITLE5=Toby Keith - my list
TTITLE6=Toby Keith - courtesy of the red, white and blue (the angry american)
TTITLE7=Toby Keith - who's your daddy
TTITLE8=Toby Keith - beer for my horses
TTITLE9=Toby Keith - stays in mexico
TTITLE10=Toby Keith - mockingbird
TTITLE11=Toby Keith - go with her
TTITLE12=Toby Keith - you ain't much fun
TTITLE13=Toby Keith - should've been a cowboy
TTITLE14=Toby Keith - i love this bar (bonus)
EXTD=
EXTT0=
EXTT1=
EXTT2=
EXTT3=
EXTT4=
EXTT5=
EXTT6=
EXTT7=
EXTT8=
EXTT9=
EXTT10=
EXTT11=
EXTT12=
EXTT13=
EXTT14=
PLAYORDER=
